<svg xmlns="http://www.w3.org/2000/svg" viewBox="0 0 91 21">
  <g fill="none" fill-rule="evenodd">
    <path fill="#005CA9" d="M27.8718169,7.02866936 L25.5327734,12.8578715 L28.7690822,12.8578715 L27.8817072,7.00394375 L27.8718169,7.02866936 Z M15.4776882,20.410724 L25.0750747,0.653305806 L32.3295714,0.653305806 L36.376331,20.410724 L30.0059126,20.410724 L29.5377742,17.7771708 L23.3574683,17.7771708 L21.9354705,20.410724 L15.4776882,20.410724 Z M39.3917577,20.410724 L42.1714667,0.653305806 L48.5902375,0.653305806 L45.8105284,20.410724 L39.3917577,20.410724 Z M82.0797151,7.00394375 L79.7302318,12.8578715 L82.9670901,12.8578715 L82.0797151,7.00394375 Z M69.6756961,20.410724 L79.2730826,0.653305806 L86.5270298,0.653305806 L90.574339,20.410724 L84.2039205,20.410724 L83.7352327,17.7771708 L77.5554762,17.7771708 L76.1334784,20.410724 L69.6756961,20.410724 Z"/>
    <polyline fill="#005CA9" points="55.486 11.173 63.529 11.173 69.039 20.3 60.996 20.3 55.486 11.173"/>
    <polyline fill="#F39200" points="56.323 9.77 64.636 9.77 71.855 .682 63.542 .682 56.323 9.77"/>
    <polyline fill="#F39200" points="48.01 20.355 56.323 20.355 63.542 11.155 55.229 11.155 48.01 20.355"/>
    <polyline fill="#005CA9" points="51.008 .571 58.766 .571 64.081 9.77 56.323 9.77 51.008 .571"/>
    <path fill="#005CA9" d="M15.6683502,1.36100798 L15.0513086,7.1715285 C12.6853416,3.90774676 7.20284762,6.15997594 6.77207238,10.2254172 C6.22481201,15.3859287 11.5018086,16.5892421 14.3732772,13.5501888 L13.7545873,19.3738963 C12.8974325,19.7958802 12.0595087,20.1217089 11.2325741,20.3436901 C10.4100352,20.5651217 9.58529839,20.6821563 8.76715513,20.6991895 C7.73856937,20.7206184 6.80668825,20.613474 5.96711611,20.377207 C5.12699452,20.1453356 4.36764328,19.7755503 3.69565589,19.2771917 C2.39893453,18.3288268 1.46155883,17.123865 0.883528794,15.657361 C0.306597679,14.1859119 0.115935681,12.5254493 0.313191177,10.6704784 C0.47143514,9.17924878 0.847264553,7.81933972 1.44562454,6.58635551 C2.03958886,5.35392075 2.86157833,4.23412493 3.90829622,3.21872617 C4.89787044,2.24948189 5.97535798,1.51925194 7.1413083,1.02309118 C8.30286294,0.531326085 9.57101248,0.268685062 10.9408118,0.240113236 C11.7589551,0.222530573 12.562263,0.30604822 13.3413947,0.493413469 C14.1254715,0.681328175 14.8980098,0.973090482 15.6683502,1.36100798"/>
  </g>
</svg>
